<?xml version="1.0" standalone="no"?>
<!DOCTYPE svg PUBLIC "-//W3C//DTD SVG 20010904//EN"
 "http://www.w3.org/TR/2001/REC-SVG-20010904/DTD/svg10.dtd">
<svg version="1.0" xmlns="http://www.w3.org/2000/svg"
 width="526.000000pt" height="526.000000pt" viewBox="0 0 526.000000 526.000000"
 preserveAspectRatio="xMidYMid meet">
<metadata>
Created by potrace 1.14, written by Peter Selinger 2001-2017
</metadata>
<g transform="translate(0.000000,526.000000) scale(0.100000,-0.100000)"
fill="#000000" stroke="none">
<path d="M2065 4643 c-290 -35 -505 -97 -734 -212 -381 -192 -701 -514 -899
-906 -28 -55 -58 -118 -67 -140 -34 -81 -88 -260 -101 -332 -2 -13 -6 -35 -9
-50 -16 -83 -19 -253 -19 -1256 l-1 -1099 27 -23 c28 -24 30 -24 215 -20 104
3 296 7 428 10 132 3 248 8 258 11 47 15 46 -6 49 1086 2 1100 3 1125 54 1282
42 129 121 254 228 361 167 168 351 270 557 310 76 14 236 20 299 10 14 -2 42
-6 62 -8 77 -11 226 -61 325 -110 278 -137 469 -384 543 -707 24 -103 -8 -97
498 -95 l441 1 27 24 c24 24 25 29 20 90 -5 52 -45 258 -59 305 -65 214 -140
378 -254 555 -180 279 -465 537 -758 688 -177 91 -410 174 -550 196 -16 2 -50
7 -75 11 -25 4 -56 9 -70 12 -30 6 -393 11 -435 6z"/>
<path d="M1592 2502 c-39 -6 -45 -34 -39 -191 6 -145 8 -165 28 -271 75 -391
301 -775 604 -1024 95 -79 90 -75 180 -131 214 -135 493 -235 755 -272 108
-15 444 -9 545 11 11 2 40 7 65 11 128 20 329 81 445 136 445 209 739 630 840
1204 22 128 25 145 32 245 11 151 9 260 -6 269 -6 4 -397 8 -867 8 -700 0
-856 -3 -865 -14 -13 -15 -17 -592 -5 -631 8 -25 -33 -23 486 -23 167 -1 302
-5 312 -10 26 -14 22 -44 -14 -116 -79 -156 -250 -267 -488 -317 -95 -20 -325
-18 -430 4 -328 68 -585 296 -703 625 -13 39 -25 72 -25 75 0 3 -3 16 -6 30
-13 57 -22 144 -30 280 -5 78 -13 100 -35 101 -54 3 -760 3 -779 1z"/>
</g>
</svg>
