<svg width="500" height="500" viewBox="0 0 500 500" fill="none" xmlns="http://www.w3.org/2000/svg">
<g clip-path="url(#clip0_9621_2)">
<path d="M500 0H0V500H500V0Z" fill="white"/>
<path d="M164.344 244.298H152.355C152.441 243.277 152.384 242.358 152.183 241.538C151.981 240.718 151.637 240.014 151.147 239.425C150.659 238.821 150.019 238.361 149.229 238.045C148.438 237.729 147.497 237.57 146.404 237.57C144.305 237.57 142.429 238.096 140.776 239.145C139.123 240.179 137.75 241.667 136.657 243.608C135.565 245.535 134.789 247.834 134.329 250.508C133.926 253.096 133.912 255.245 134.286 256.955C134.674 258.666 135.428 259.946 136.55 260.793C137.685 261.642 139.158 262.066 140.97 262.066C142.178 262.066 143.284 261.922 144.291 261.635C145.311 261.347 146.217 260.937 147.007 260.405C147.813 259.859 148.495 259.212 149.056 258.465C149.631 257.703 150.07 256.862 150.371 255.942H162.446C161.987 257.81 161.167 259.722 159.988 261.678C158.809 263.618 157.286 265.408 155.417 267.047C153.548 268.671 151.349 269.986 148.819 270.993C146.289 271.999 143.443 272.502 140.28 272.502C136.14 272.502 132.568 271.596 129.563 269.785C126.573 267.974 124.403 265.329 123.052 261.85C121.715 258.371 121.449 254.131 122.254 249.128C123.058 244.298 124.647 240.251 127.019 236.988C129.391 233.725 132.273 231.267 135.665 229.614C139.058 227.961 142.666 227.134 146.49 227.134C149.38 227.134 151.967 227.515 154.253 228.277C156.552 229.039 158.486 230.153 160.053 231.62C161.634 233.071 162.799 234.86 163.546 236.988C164.293 239.116 164.56 241.552 164.344 244.298ZM181.298 272.502C177.704 272.502 174.742 271.79 172.414 270.368C170.1 268.93 168.475 266.932 167.54 264.373C166.606 261.8 166.419 258.817 166.98 255.424C167.54 252.032 168.712 249.056 170.494 246.498C172.277 243.925 174.57 241.926 177.374 240.503C180.176 239.065 183.382 238.347 186.99 238.347C190.569 238.347 193.517 239.065 195.831 240.503C198.159 241.926 199.791 243.925 200.726 246.498C201.674 249.056 201.868 252.032 201.308 255.424C200.747 258.817 199.569 261.8 197.771 264.373C195.974 266.932 193.674 268.93 190.871 270.368C188.082 271.79 184.891 272.502 181.298 272.502ZM182.764 263.704C183.799 263.704 184.74 263.367 185.589 262.691C186.451 262.015 187.184 261.052 187.788 259.801C188.406 258.551 188.859 257.063 189.147 255.338C189.434 253.599 189.477 252.111 189.276 250.875C189.075 249.624 188.657 248.661 188.025 247.985C187.392 247.31 186.559 246.972 185.524 246.972C184.489 246.972 183.54 247.31 182.677 247.985C181.815 248.661 181.082 249.624 180.478 250.875C179.874 252.111 179.429 253.599 179.141 255.338C178.854 257.063 178.804 258.551 178.99 259.801C179.192 261.052 179.608 262.015 180.241 262.691C180.888 263.367 181.729 263.704 182.764 263.704ZM218.471 253.268L215.367 271.898H203.464L208.984 238.778H220.283L219.248 245.074H219.593C220.642 242.961 222.173 241.315 224.186 240.136C226.212 238.943 228.448 238.347 230.892 238.347C233.235 238.347 235.183 238.879 236.735 239.942C238.288 241.006 239.388 242.472 240.035 244.341C240.681 246.21 240.796 248.352 240.379 250.767L236.843 271.898H224.94L228.046 253.268C228.319 251.629 228.117 250.342 227.442 249.408C226.781 248.474 225.688 248.006 224.164 248.006C223.201 248.006 222.317 248.222 221.512 248.654C220.721 249.071 220.06 249.675 219.528 250.465C219.011 251.242 218.658 252.176 218.471 253.268ZM280.345 238.778L263.699 271.898H249.899L244.293 238.778H256.368L258.093 260.686H258.438L267.408 238.778H280.345ZM292.987 272.502C289.451 272.502 286.518 271.827 284.189 270.475C281.861 269.109 280.221 267.154 279.273 264.61C278.324 262.051 278.152 258.989 278.756 255.424C279.331 252.003 280.517 249.013 282.313 246.455C284.124 243.895 286.403 241.905 289.149 240.481C291.908 239.059 294.999 238.347 298.421 238.347C300.922 238.347 303.114 238.735 304.997 239.511C306.895 240.287 308.44 241.416 309.633 242.897C310.826 244.377 311.632 246.167 312.048 248.265C312.479 250.35 312.479 252.707 312.048 255.338L311.617 258.098H282.033L283.068 251.543H301.698C301.842 250.595 301.748 249.761 301.418 249.042C301.102 248.308 300.591 247.741 299.887 247.339C299.196 246.922 298.363 246.713 297.386 246.713C296.408 246.713 295.488 246.922 294.626 247.339C293.777 247.755 293.051 248.337 292.448 249.085C291.859 249.832 291.463 250.709 291.261 251.715L289.968 258.616C289.796 259.679 289.86 260.628 290.162 261.462C290.464 262.296 290.988 262.95 291.736 263.424C292.484 263.898 293.447 264.135 294.626 264.135C295.43 264.135 296.193 264.028 296.911 263.812C297.644 263.582 298.292 263.251 298.852 262.821C299.427 262.374 299.887 261.836 300.232 261.203H311.099C310.324 263.503 309.094 265.502 307.412 267.197C305.745 268.879 303.689 270.188 301.245 271.122C298.816 272.042 296.063 272.502 292.987 272.502ZM314.146 271.898L319.665 238.778H331.223L330.188 245.074H330.532C331.524 242.746 332.768 241.042 334.263 239.964C335.758 238.886 337.39 238.347 339.158 238.347C339.675 238.347 340.171 238.39 340.646 238.476C341.134 238.548 341.616 238.649 342.09 238.778L340.365 248.955C339.805 248.74 339.108 248.589 338.273 248.503C337.44 248.402 336.7 248.352 336.053 248.352C334.903 248.352 333.825 248.618 332.819 249.15C331.826 249.667 330.979 250.401 330.274 251.349C329.584 252.283 329.124 253.383 328.894 254.648L326.048 271.898H314.146ZM357.265 238.778L360.37 249.042L367.184 238.778H379L367.356 255.338L373.911 271.898H362.181L358.3 261.376L351.141 271.898H339.238L351.4 255.338L345.363 238.778H357.265Z" fill="#1E3A8A"/>
</g>
<defs>
<clipPath id="clip0_9621_2">
<rect width="500" height="500" fill="white"/>
</clipPath>
</defs>
</svg>
