<svg width="500" height="500" viewBox="0 0 500 500" fill="none" xmlns="http://www.w3.org/2000/svg">
<rect width="500" height="500" fill="white"/>
<path d="M150.358 244.273H136.142C136.244 243.062 136.176 241.972 135.938 241C135.699 240.028 135.29 239.193 134.71 238.494C134.131 237.778 133.372 237.233 132.435 236.858C131.497 236.483 130.381 236.295 129.085 236.295C126.597 236.295 124.372 236.918 122.412 238.162C120.452 239.389 118.824 241.153 117.528 243.455C116.233 245.739 115.313 248.466 114.767 251.636C114.29 254.705 114.273 257.253 114.716 259.281C115.176 261.31 116.071 262.827 117.401 263.832C118.747 264.838 120.494 265.341 122.642 265.341C124.074 265.341 125.386 265.17 126.58 264.83C127.79 264.489 128.864 264.003 129.801 263.372C130.756 262.724 131.565 261.957 132.23 261.071C132.912 260.168 133.432 259.17 133.79 258.08H148.108C147.563 260.295 146.591 262.562 145.193 264.881C143.795 267.182 141.989 269.304 139.773 271.247C137.557 273.173 134.949 274.733 131.949 275.926C128.949 277.119 125.574 277.716 121.824 277.716C116.915 277.716 112.679 276.642 109.116 274.494C105.571 272.347 102.997 269.21 101.395 265.085C99.8097 260.96 99.4943 255.932 100.449 250C101.403 244.273 103.287 239.474 106.099 235.605C108.912 231.736 112.33 228.821 116.352 226.861C120.375 224.901 124.653 223.92 129.188 223.92C132.614 223.92 135.682 224.372 138.392 225.276C141.119 226.179 143.412 227.5 145.27 229.239C147.145 230.96 148.526 233.082 149.412 235.605C150.298 238.128 150.614 241.017 150.358 244.273ZM170.461 277.716C166.2 277.716 162.688 276.872 159.927 275.185C157.183 273.48 155.256 271.111 154.148 268.077C153.04 265.026 152.819 261.489 153.484 257.466C154.148 253.443 155.538 249.915 157.651 246.881C159.765 243.83 162.484 241.46 165.808 239.773C169.131 238.068 172.933 237.216 177.211 237.216C181.455 237.216 184.95 238.068 187.694 239.773C190.455 241.46 192.39 243.83 193.498 246.881C194.623 249.915 194.853 253.443 194.188 257.466C193.523 261.489 192.126 265.026 189.995 268.077C187.864 271.111 185.137 273.48 181.813 275.185C178.506 276.872 174.722 277.716 170.461 277.716ZM172.2 267.284C173.427 267.284 174.543 266.884 175.549 266.082C176.572 265.281 177.441 264.139 178.157 262.656C178.89 261.173 179.427 259.409 179.768 257.364C180.109 255.301 180.16 253.537 179.921 252.071C179.683 250.588 179.188 249.446 178.438 248.645C177.688 247.844 176.7 247.443 175.472 247.443C174.245 247.443 173.12 247.844 172.097 248.645C171.075 249.446 170.205 250.588 169.489 252.071C168.773 253.537 168.245 255.301 167.904 257.364C167.563 259.409 167.504 261.173 167.725 262.656C167.964 264.139 168.458 265.281 169.208 266.082C169.975 266.884 170.972 267.284 172.2 267.284ZM214.54 254.909L210.859 277H196.745L203.29 237.727H216.688L215.461 245.193H215.87C217.114 242.687 218.93 240.736 221.316 239.338C223.719 237.923 226.37 237.216 229.268 237.216C232.046 237.216 234.356 237.847 236.197 239.108C238.038 240.369 239.342 242.108 240.109 244.324C240.876 246.54 241.012 249.08 240.518 251.943L236.325 277H222.211L225.893 254.909C226.217 252.966 225.978 251.44 225.177 250.332C224.393 249.224 223.097 248.67 221.29 248.67C220.148 248.67 219.1 248.926 218.146 249.438C217.208 249.932 216.424 250.648 215.793 251.585C215.18 252.506 214.762 253.614 214.54 254.909ZM287.908 237.727L268.17 277H251.806L245.158 237.727H259.477L261.522 263.705H261.931L272.567 237.727H287.908ZM302.898 277.716C298.705 277.716 295.227 276.915 292.466 275.312C289.705 273.693 287.761 271.375 286.636 268.358C285.511 265.324 285.307 261.693 286.023 257.466C286.705 253.409 288.111 249.864 290.241 246.83C292.389 243.795 295.091 241.435 298.347 239.747C301.619 238.06 305.284 237.216 309.341 237.216C312.307 237.216 314.906 237.676 317.139 238.597C319.389 239.517 321.222 240.855 322.636 242.611C324.051 244.366 325.006 246.489 325.5 248.977C326.011 251.449 326.011 254.244 325.5 257.364L324.989 260.636H289.909L291.136 252.864H313.227C313.398 251.739 313.287 250.75 312.895 249.898C312.52 249.028 311.915 248.355 311.08 247.878C310.261 247.384 309.273 247.136 308.114 247.136C306.955 247.136 305.864 247.384 304.841 247.878C303.835 248.372 302.974 249.062 302.259 249.949C301.56 250.835 301.091 251.875 300.852 253.068L299.318 261.25C299.114 262.511 299.19 263.636 299.548 264.625C299.906 265.614 300.528 266.389 301.415 266.952C302.301 267.514 303.443 267.795 304.841 267.795C305.795 267.795 306.699 267.668 307.551 267.412C308.42 267.139 309.188 266.747 309.852 266.236C310.534 265.707 311.08 265.068 311.489 264.318H324.375C323.455 267.045 321.997 269.415 320.003 271.426C318.026 273.42 315.588 274.972 312.69 276.08C309.81 277.17 306.545 277.716 302.898 277.716ZM327.987 277L334.532 237.727H348.237L347.009 245.193H347.418C348.594 242.432 350.069 240.412 351.842 239.134C353.614 237.855 355.549 237.216 357.646 237.216C358.259 237.216 358.847 237.267 359.41 237.369C359.989 237.455 360.56 237.574 361.123 237.727L359.077 249.795C358.413 249.54 357.586 249.361 356.597 249.259C355.609 249.139 354.731 249.08 353.964 249.08C352.6 249.08 351.322 249.395 350.129 250.026C348.952 250.639 347.947 251.509 347.112 252.634C346.293 253.741 345.748 255.045 345.475 256.545L342.1 277H327.987ZM379.116 237.727L382.798 249.898L390.878 237.727H404.889L391.082 257.364L398.855 277H384.946L380.344 264.523L371.855 277H357.741L372.162 257.364L365.003 237.727H379.116Z" fill="#1E3A8A"/>
</svg>
