<svg width="500" height="500" viewBox="0 0 500 500" fill="none" xmlns="http://www.w3.org/2000/svg">
<rect width="500" height="500" fill="white"/>
<path d="M242.09 126.284C245.091 120.094 253.909 120.094 256.91 126.284L349.795 317.864C352.447 323.333 348.463 329.692 342.385 329.692H232.41H156.615C150.537 329.692 146.553 323.333 149.205 317.864L242.09 126.284Z" fill="#1D6E3D"/>
<path d="M266.174 329.692H232.41V384.409C232.41 386.683 234.254 388.526 236.528 388.526H262.057C264.331 388.526 266.174 386.683 266.174 384.409V329.692Z" fill="#005103"/>
<path d="M226.883 275.768C207.536 289.439 191.118 265.084 212.586 252.434C212.586 252.434 213.517 251.632 233.683 239.322C253.849 227.012 271.211 250.842 248.761 262.159M267.241 235.382C286.589 221.71 303.007 246.066 281.539 258.715C281.539 258.715 280.607 259.517 260.441 271.827C240.276 284.137 222.913 260.307 245.363 248.991" stroke="#DEDEDE" stroke-width="7.49229" stroke-linecap="round"/>
</svg>
