<svg width="1234" height="1044" viewBox="0 0 1234 1044" fill="none" xmlns="http://www.w3.org/2000/svg">
<path d="M795.452 481.125C789.215 481.125 783.956 476.304 782.947 470.151C732.949 165.771 258.052 190.355 258.052 481.125V1023.11C258.052 1029.95 252.506 1035.5 245.664 1035.5H13.3881C6.54632 1035.5 1 1029.95 1 1023.11V481.125C1 -143.076 956.138 -170.045 1033.86 467.229C1034.75 474.506 1029.04 481.125 1021.71 481.125H795.452Z" fill="#D9D9D9" stroke="#FBFBFB"/>
<path d="M538.849 549.179C546.081 549.179 551.741 555.54 551.441 562.764C539.409 852.394 900.49 920.275 985.342 741.94C989.015 734.223 983.069 725.712 974.521 725.712H796.932C790.088 725.712 784.544 720.168 784.544 713.324V561.568C784.544 554.726 790.088 549.179 796.932 549.179H1219.22C1225.61 549.179 1231 554.368 1231.47 560.751C1278.38 1192.12 347.529 1213.88 335.593 561.884C335.468 555.043 341.023 549.179 347.865 549.179H538.849Z" fill="#D9D9D9" stroke="#FBFBFB"/>
</svg>
