<svg width="201" height="170" viewBox="0 0 201 170" fill="none" xmlns="http://www.w3.org/2000/svg">
<path d="M129.261 78.5131C128.254 78.5131 127.405 77.7348 127.242 76.7413C119.17 27.6012 42.5 31.5701 42.5 78.5131V166.013C42.5 167.117 41.6046 168.013 40.5 168.013H3C1.89543 168.013 1 167.117 1 166.013V78.5131C1 -22.2601 155.203 -26.6141 167.751 76.2696C167.894 77.4445 166.973 78.5131 165.789 78.5131H129.261Z" fill="#FBFBFB"/>
<path d="M87.8336 89.5C89.0011 89.5 89.9149 90.5268 89.8664 91.6932C87.9239 138.452 146.219 149.411 159.918 120.62C160.511 119.374 159.551 118 158.171 118H129.5C128.395 118 127.5 117.105 127.5 116V91.5C127.5 90.3954 128.395 89.5 129.5 89.5H197.676C198.709 89.5 199.579 90.3376 199.655 91.3682C207.227 193.299 56.9458 196.811 55.0187 91.551C54.9985 90.4466 55.8954 89.5 57 89.5H87.8336Z" fill="#FBFBFB"/>
<path d="M129.261 78.5131C128.254 78.5131 127.405 77.7348 127.242 76.7413C119.17 27.6012 42.5 31.5701 42.5 78.5131V166.013C42.5 167.117 41.6046 168.013 40.5 168.013H3C1.89543 168.013 1 167.117 1 166.013V78.5131C1 -22.2601 155.203 -26.6141 167.751 76.2696C167.894 77.4445 166.973 78.5131 165.789 78.5131H129.261Z" stroke="#FBFBFB"/>
<path d="M87.8336 89.5C89.0011 89.5 89.9149 90.5268 89.8664 91.6932C87.9239 138.452 146.219 149.411 159.918 120.62C160.511 119.374 159.551 118 158.171 118H129.5C128.395 118 127.5 117.105 127.5 116V91.5C127.5 90.3954 128.395 89.5 129.5 89.5H197.676C198.709 89.5 199.579 90.3376 199.655 91.3682C207.227 193.299 56.9458 196.811 55.0187 91.551C54.9985 90.4466 55.8954 89.5 57 89.5H87.8336Z" stroke="#FBFBFB"/>
</svg>
