<svg width="500" height="500" viewBox="0 0 500 500" fill="none" xmlns="http://www.w3.org/2000/svg">
<rect width="500" height="500" fill="#414030"/>
<path d="M313.643 233.034H302.456C301.794 229.816 300.637 226.989 298.983 224.554C297.359 222.118 295.374 220.073 293.028 218.419C290.713 216.735 288.142 215.472 285.315 214.63C282.488 213.788 279.541 213.367 276.474 213.367C270.88 213.367 265.813 214.78 261.273 217.607C256.762 220.434 253.168 224.599 250.492 230.102C247.845 235.605 246.522 242.356 246.522 250.355C246.522 258.354 247.845 265.105 250.492 270.609C253.168 276.112 256.762 280.277 261.273 283.104C265.813 285.93 270.88 287.344 276.474 287.344C279.541 287.344 282.488 286.923 285.315 286.081C288.142 285.239 290.713 283.991 293.028 282.337C295.374 280.653 297.359 278.593 298.983 276.157C300.637 273.691 301.794 270.864 302.456 267.677H313.643C312.801 272.398 311.267 276.623 309.042 280.352C306.816 284.081 304.05 287.253 300.742 289.87C297.434 292.456 293.72 294.426 289.6 295.779C285.51 297.132 281.135 297.809 276.474 297.809C268.595 297.809 261.588 295.884 255.454 292.035C249.319 288.186 244.492 282.713 240.974 275.616C237.456 268.519 235.696 260.099 235.696 250.355C235.696 240.612 237.456 232.192 240.974 225.095C244.492 217.998 249.319 212.525 255.454 208.676C261.588 204.826 268.595 202.902 276.474 202.902C281.135 202.902 285.51 203.578 289.6 204.932C293.72 206.285 297.434 208.27 300.742 210.886C304.05 213.472 306.816 216.63 309.042 220.359C311.267 224.057 312.801 228.282 313.643 233.034Z" fill="white" fill-opacity="0.65"/>
<path d="M287.37 233.034H276.183C275.522 229.816 274.364 226.989 272.71 224.554C271.086 222.118 269.101 220.073 266.756 218.419C264.44 216.735 261.869 215.472 259.042 214.63C256.215 213.788 253.268 213.367 250.201 213.367C244.608 213.367 239.541 214.78 235 217.607C230.489 220.434 226.895 224.599 224.219 230.102C221.573 235.605 220.25 242.356 220.25 250.355C220.25 258.354 221.573 265.105 224.219 270.609C226.895 276.112 230.489 280.277 235 283.104C239.541 285.93 244.608 287.344 250.201 287.344C253.268 287.344 256.215 286.923 259.042 286.081C261.869 285.239 264.44 283.991 266.756 282.337C269.101 280.653 271.086 278.593 272.71 276.157C274.364 273.691 275.522 270.864 276.183 267.677H287.37C286.528 272.398 284.994 276.623 282.769 280.352C280.544 284.081 277.777 287.253 274.469 289.87C271.161 292.456 267.447 294.426 263.327 295.779C259.238 297.132 254.862 297.809 250.201 297.809C242.322 297.809 235.316 295.884 229.181 292.035C223.046 288.186 218.22 282.713 214.701 275.616C211.183 268.519 209.424 260.099 209.424 250.355C209.424 240.612 211.183 232.192 214.701 225.095C218.22 217.998 223.046 212.525 229.181 208.676C235.316 204.826 242.322 202.902 250.201 202.902C254.862 202.902 259.238 203.578 263.327 204.932C267.447 206.285 271.161 208.27 274.469 210.886C277.777 213.472 280.544 216.63 282.769 220.359C284.994 224.057 286.528 228.282 287.37 233.034Z" fill="white" fill-opacity="0.85"/>
<path d="M190.358 295V202.621H221.572C228.789 202.621 234.713 203.854 239.344 206.32C243.975 208.756 247.403 212.109 249.629 216.379C251.854 220.649 252.967 225.505 252.967 230.948C252.967 236.391 251.854 241.218 249.629 245.428C247.403 249.638 243.99 252.945 239.389 255.351C234.789 257.727 228.91 258.915 221.753 258.915H196.493V248.811H221.392C226.324 248.811 230.293 248.089 233.3 246.645C236.337 245.202 238.532 243.157 239.886 240.511C241.269 237.835 241.961 234.647 241.961 230.948C241.961 227.249 241.269 224.017 239.886 221.25C238.502 218.484 236.292 216.349 233.255 214.845C230.218 213.311 226.203 212.545 221.211 212.545H201.545V295H190.358ZM233.841 253.502L256.575 295H243.584L221.211 253.502H233.841Z" fill="white"/>
<path d="M165 204.886L165 321.136H335V177.409L165 177.409" stroke="white" stroke-width="4.23412"/>
</svg>
