<svg width="500" height="500" viewBox="0 0 500 500" fill="none" xmlns="http://www.w3.org/2000/svg">
<rect width="500" height="500" fill="white"/>
<path fill-rule="evenodd" clip-rule="evenodd" d="M186.492 143.217C185.236 143.362 184.788 143.723 184.932 144.475C185.083 145.266 186.095 145.637 188.978 145.956C195.574 146.688 201.242 150.26 205.033 156.075C207.809 160.335 214.588 175.314 214.003 175.899C213.757 176.147 200.099 176.349 183.654 176.349H153.753V178.236V180.123L158.772 180.501C164.407 180.925 168.232 182.424 175.178 186.926C180.032 190.073 188.565 197.866 191.391 201.732C194.487 205.969 194.84 205.385 194.85 196.004C194.856 191.421 195.106 187.282 195.406 186.806C195.823 186.146 198.635 185.865 207.311 185.616L218.669 185.289L219.863 188.052C220.519 189.572 223.515 196.617 226.519 203.709C229.524 210.8 232.489 217.734 233.109 219.118C235.31 224.027 243.995 243.798 248.465 254.074L253 264.501L251.051 265.813C247.405 268.265 242.214 270.455 236.42 271.983C231.622 273.248 229.06 273.516 221.362 273.558C216.164 273.586 211.31 273.313 210.322 272.937C208.094 272.087 208.014 272.092 208.014 273.092C208.014 273.548 210.202 274.954 212.875 276.218C229.099 283.884 239.853 294.576 256.346 319.436C266.204 334.295 274.121 343.179 282.436 348.714C285.919 351.032 296.181 355.286 298.289 355.286C298.975 355.286 301.174 355.715 303.174 356.239C307.914 357.481 322.535 358.171 324.834 357.262C327.361 356.263 326.465 354.657 323.382 354.657C320.676 354.657 313.853 352.268 309.86 349.922C307.453 348.507 295.636 337.171 292.126 332.909C291.293 331.899 288.471 328.524 285.853 325.411C276.058 313.763 276.125 313.901 277.694 308.744C279.347 303.31 285.323 288.625 289.724 279.183C291.094 276.242 292.768 272.563 293.442 271.006C294.117 269.45 296.234 264.78 298.149 260.629C303.24 249.59 303.712 248.54 306.083 243.018C307.27 240.251 309.652 234.873 311.374 231.068C316.816 219.043 323.199 204.885 326.258 198.048C327.884 194.416 329.723 190.312 330.345 188.928C330.966 187.545 334.524 179.62 338.252 171.318C345.832 154.433 347.572 151.939 354.259 148.365C357.026 146.886 359.214 146.226 362.124 145.992C365.783 145.698 366.137 145.546 365.966 144.341C365.778 143.018 365.71 143.015 341.94 143.015H318.103L317.902 144.43C317.726 145.677 317.976 145.845 320.003 145.845C323.293 145.845 326.435 147.552 328.274 150.338C329.607 152.358 329.819 153.284 329.584 156.058C329.43 157.878 328.843 160.358 328.279 161.569C327.715 162.78 324.396 170.704 320.904 179.179C317.411 187.655 313.065 198.127 311.245 202.451C309.425 206.775 304.754 218.096 300.866 227.609C296.978 237.122 293.302 246.037 292.697 247.421C292.092 248.804 290.822 251.918 289.876 254.339C288.929 256.761 287.707 259.717 287.16 260.909C286.614 262.1 284.308 267.573 282.036 273.071C279.765 278.568 277.635 283.07 277.304 283.075C276.973 283.08 275.778 280.775 274.649 277.953L272.597 272.822L277.62 268.084C284.579 261.519 288.797 254.476 291.712 244.555C293.237 239.363 293.567 236.295 293.537 227.609C293.49 214.141 289.902 204.828 281.456 196.251C276.491 191.208 275.77 190.594 271.676 187.929C268.385 185.786 260.019 182.068 255.688 180.823C248.809 178.846 241.292 177.293 238.603 177.293C237.091 177.293 235.396 176.939 234.837 176.506C234.277 176.074 232.247 171.768 230.326 166.938C226.383 157.025 225.916 153.455 228.097 149.917C229.597 147.483 232.731 145.845 235.886 145.845C238.085 145.845 239.519 144.517 238.461 143.459C238.031 143.03 190.065 142.806 186.492 143.217ZM171.631 187.416C171.631 187.795 172.032 188.857 172.521 189.775C174.911 194.256 175.623 197.274 175.772 203.553C176.045 215.112 173.341 222.076 160.522 242.833C156.953 248.612 153.348 254.157 152.51 255.154C151.018 256.932 140.267 273.937 140.267 274.52C140.267 274.682 139.283 276.81 138.081 279.249C135.009 285.481 133.993 289.371 134 294.864C134.008 301.35 135.655 304.751 141.679 310.721C147.505 316.495 158.716 323.163 160.159 321.713C160.431 321.439 159.807 320.514 158.772 319.657C152.622 314.562 150.109 311.365 148.145 306.139C147.29 303.862 147.096 301.774 147.265 296.642C147.474 290.256 147.567 289.889 150.428 284.114C153.778 277.352 156.905 272.339 165.454 260.022C176.496 244.111 181.615 235.077 184.612 226.213C186.138 221.698 186.372 220.041 186.372 213.772C186.372 208.173 186.102 205.828 185.176 203.394C183.639 199.359 180.138 194.211 176.083 190.029C172.956 186.804 171.631 186.026 171.631 187.416ZM239.161 187.784C238.798 188.147 240.254 192.024 245.969 205.91C248.246 211.445 251.894 220.501 254.074 226.036C262.981 248.643 264.179 251.494 264.706 251.321C265.009 251.222 266.371 248.37 267.732 244.983C274.173 228.957 271.662 209.785 261.763 199.414C258.673 196.176 251.23 191.439 246.817 189.901C240.76 187.791 239.501 187.443 239.161 187.784ZM189.196 204.495C189.196 204.581 189.791 206.209 190.519 208.111C191.337 210.251 191.845 213.039 191.851 215.421C191.861 219.281 190.67 225.513 189.708 226.634C189.426 226.963 189.195 227.717 189.195 228.31C189.195 229.56 181.686 244.335 179.162 248.05C178.222 249.433 176.996 251.459 176.439 252.55C175.88 253.642 175.065 254.928 174.625 255.409C174.186 255.89 173.375 257.12 172.823 258.142C172.271 259.164 170.331 262.405 168.512 265.346C159.263 280.294 154.733 292.434 154.705 302.343C154.686 309.251 158.3 317.9 163.382 323.113C165.509 325.295 171.71 329.904 173.804 330.861C175.275 331.533 175.395 331.904 175.395 335.775C175.395 347.207 169.528 353.801 158.301 354.986C154.756 355.36 154.067 355.623 154.067 356.599C154.067 357.716 155.314 357.773 183.393 357.941C199.522 358.038 213.651 358.013 214.791 357.886C216.494 357.698 216.83 357.417 216.673 356.314C216.504 355.121 215.959 354.929 211.766 354.587C204.467 353.991 200.004 351.044 196.634 344.594C195.156 341.766 195.154 341.746 195.365 321.828C195.48 310.864 195.393 301.322 195.172 300.623C194.9 299.764 194.02 299.229 192.453 298.969C191.179 298.758 187.081 297.754 183.345 296.738C179.61 295.722 176.269 295.068 175.919 295.285C175.519 295.533 175.353 299.594 175.471 306.272C175.574 312.098 175.465 317.059 175.229 317.297C174.607 317.919 173.138 316.539 169.321 311.743C165.147 306.5 163.359 302.498 163.271 298.206C163.219 295.642 163.495 294.609 164.502 293.598C166.911 291.184 169.872 291.385 179.786 294.637C190.794 298.248 196.042 298.713 198.031 296.252C199.438 294.513 199.616 290.383 198.497 285.519C197.808 282.528 197.852 282.227 199.2 280.789C200.246 279.673 200.532 278.823 200.247 277.683C199.959 276.531 200.187 275.88 201.104 275.236C202.341 274.366 202.64 272.501 202.231 268.196C202.071 266.501 202.26 266.294 204.271 265.958C205.491 265.755 206.831 265.375 207.251 265.116C208.386 264.412 208.173 260.732 206.916 259.309C201.549 253.232 199.513 246.861 202.368 245.073C203.939 244.09 203.982 242.944 202.464 242.546C201.763 242.363 201.142 241.431 200.895 240.193C200.254 236.976 200.417 231.704 201.181 230.937C201.609 230.509 201.736 229.067 201.513 227.195C201.312 225.52 201.121 223.725 201.087 223.206C200.783 218.531 194.867 207.622 191.4 205.345C189.982 204.413 189.195 204.11 189.196 204.495ZM256.942 280.358C256.425 280.638 254.401 281.234 252.445 281.685L248.889 282.504L252.445 285.496C257.814 290.012 265.177 298.363 267.159 302.184C268.199 304.19 271.37 307.435 271.371 306.494C271.371 306.175 268.772 300.041 265.595 292.863C259.814 279.8 259.314 279.078 256.942 280.358Z" fill="#594032"/>
</svg>
