<svg width="500" height="500" viewBox="0 0 500 500" fill="none" xmlns="http://www.w3.org/2000/svg">
<g clip-path="url(#clip0_9623_24)">
<path d="M500 0H0V500H500V0Z" fill="white"/>
<path fill-rule="evenodd" clip-rule="evenodd" d="M209.165 180.141C208.348 180.236 208.056 180.471 208.15 180.961C208.248 181.476 208.907 181.717 210.783 181.925C215.076 182.402 218.765 184.728 221.233 188.514C223.039 191.288 227.452 201.042 227.071 201.423C226.911 201.584 218.021 201.716 207.318 201.716H187.856V202.944V204.173L191.123 204.419C194.791 204.695 197.28 205.672 201.801 208.603C204.96 210.652 210.514 215.727 212.354 218.244C214.369 221.003 214.598 220.623 214.605 214.514C214.609 211.53 214.772 208.835 214.967 208.525C215.238 208.095 217.068 207.912 222.715 207.75L230.108 207.537L230.885 209.336C231.312 210.326 233.262 214.913 235.217 219.532C237.173 224.149 239.103 228.664 239.506 229.565C240.939 232.762 246.592 245.636 249.501 252.327L252.453 259.117L251.184 259.971C248.811 261.568 245.432 262.994 241.661 263.989C238.538 264.813 236.871 264.987 231.861 265.015C228.477 265.033 225.318 264.855 224.675 264.61C223.225 264.057 223.173 264.06 223.173 264.711C223.173 265.008 224.597 265.924 226.337 266.747C236.896 271.738 243.896 278.701 254.63 294.888C261.047 304.564 266.199 310.349 271.611 313.953C273.878 315.463 280.557 318.233 281.929 318.233C282.376 318.233 283.807 318.512 285.109 318.853C288.194 319.662 297.71 320.111 299.207 319.519C300.851 318.869 300.268 317.823 298.261 317.823C296.5 317.823 292.059 316.267 289.461 314.74C287.894 313.818 280.203 306.437 277.918 303.662C277.376 303.004 275.539 300.806 273.835 298.779C267.46 291.194 267.504 291.284 268.525 287.926C269.601 284.388 273.49 274.826 276.355 268.677C277.246 266.762 278.336 264.367 278.775 263.353C279.214 262.34 280.592 259.299 281.838 256.596C285.152 249.407 285.459 248.724 287.002 245.128C287.775 243.326 289.325 239.824 290.446 237.347C293.988 229.516 298.142 220.297 300.133 215.845C301.192 213.48 302.389 210.808 302.793 209.907C303.198 209.006 305.513 203.846 307.94 198.44C312.873 187.445 314.006 185.821 318.358 183.494C320.159 182.531 321.583 182.101 323.477 181.948C325.859 181.757 326.089 181.658 325.978 180.873C325.855 180.012 325.811 180.01 310.34 180.01H294.826L294.695 180.931C294.58 181.743 294.743 181.853 296.062 181.853C298.204 181.853 300.249 182.964 301.446 184.778C302.313 186.094 302.451 186.697 302.298 188.503C302.198 189.688 301.816 191.303 301.449 192.092C301.082 192.88 298.921 198.04 296.649 203.559C294.375 209.078 291.547 215.897 290.362 218.712C289.177 221.528 286.137 228.9 283.607 235.094C281.076 241.289 278.684 247.094 278.29 247.995C277.896 248.896 277.069 250.923 276.454 252.5C275.837 254.077 275.042 256.002 274.686 256.778C274.331 257.553 272.83 261.117 271.351 264.697C269.873 268.277 268.487 271.208 268.271 271.212C268.056 271.215 267.278 269.714 266.543 267.876L265.207 264.535L268.477 261.45C273.006 257.175 275.751 252.589 277.649 246.129C278.641 242.748 278.856 240.75 278.837 235.094C278.806 226.324 276.471 220.26 270.973 214.675C267.742 211.391 267.273 210.992 264.608 209.256C262.466 207.861 257.021 205.44 254.202 204.629C249.725 203.342 244.832 202.33 243.082 202.33C242.098 202.33 240.995 202.1 240.631 201.818C240.266 201.537 238.945 198.733 237.695 195.588C235.129 189.133 234.825 186.808 236.244 184.504C237.22 182.919 239.26 181.853 241.314 181.853C242.745 181.853 243.678 180.988 242.99 180.299C242.71 180.02 211.491 179.874 209.165 180.141ZM199.493 208.922C199.493 209.169 199.754 209.86 200.072 210.458C201.627 213.376 202.091 215.341 202.188 219.43C202.366 226.957 200.606 231.491 192.262 245.008C189.939 248.771 187.593 252.381 187.047 253.031C186.076 254.188 179.079 265.261 179.079 265.641C179.079 265.746 178.439 267.132 177.656 268.72C175.657 272.778 174.995 275.311 175 278.888C175.005 283.112 176.077 285.326 179.998 289.214C183.79 292.973 191.087 297.315 192.026 296.371C192.203 296.193 191.797 295.59 191.123 295.032C187.12 291.715 185.485 289.633 184.206 286.23C183.65 284.747 183.524 283.388 183.634 280.046C183.77 275.888 183.83 275.649 185.692 271.888C187.873 267.485 189.908 264.221 195.472 256.2C202.659 245.84 205.991 239.957 207.941 234.185C208.935 231.245 209.087 230.166 209.087 226.084C209.087 222.438 208.911 220.911 208.309 219.326C207.308 216.699 205.029 213.347 202.39 210.624C200.355 208.524 199.493 208.017 199.493 208.922ZM243.445 209.162C243.209 209.398 244.157 211.923 247.876 220.965C249.358 224.569 251.733 230.466 253.152 234.07C258.949 248.791 259.729 250.647 260.072 250.535C260.269 250.47 261.155 248.613 262.041 246.408C266.233 235.972 264.599 223.488 258.156 216.735C256.145 214.626 251.301 211.542 248.428 210.54C244.486 209.166 243.667 208.94 243.445 209.162ZM210.925 220.043C210.925 220.099 211.312 221.159 211.786 222.398C212.318 223.791 212.649 225.607 212.653 227.158C212.66 229.671 211.884 233.729 211.258 234.459C211.075 234.674 210.924 235.165 210.924 235.551C210.924 236.365 206.037 245.986 204.394 248.405C203.782 249.305 202.984 250.624 202.622 251.335C202.258 252.046 201.728 252.883 201.441 253.197C201.156 253.51 200.628 254.311 200.268 254.976C199.909 255.642 198.646 257.752 197.463 259.667C191.443 269.401 188.494 277.306 188.476 283.758C188.464 288.256 190.816 293.888 194.124 297.283C195.508 298.704 199.544 301.705 200.907 302.328C201.864 302.766 201.942 303.007 201.942 305.528C201.942 312.972 198.124 317.266 190.817 318.037C188.509 318.281 188.061 318.452 188.061 319.088C188.061 319.815 188.872 319.852 207.148 319.961C217.646 320.025 226.842 320.008 227.584 319.926C228.692 319.803 228.911 319.62 228.809 318.902C228.699 318.125 228.344 318 225.615 317.777C220.864 317.389 217.959 315.47 215.766 311.27C214.804 309.429 214.803 309.416 214.94 296.446C215.015 289.307 214.958 283.093 214.815 282.638C214.637 282.079 214.065 281.73 213.045 281.561C212.216 281.424 209.548 280.77 207.117 280.108C204.686 279.447 202.511 279.021 202.283 279.162C202.023 279.324 201.915 281.968 201.992 286.317C202.059 290.11 201.988 293.341 201.834 293.496C201.43 293.901 200.473 293.002 197.989 289.879C195.272 286.465 194.109 283.859 194.051 281.064C194.018 279.395 194.197 278.722 194.853 278.064C196.421 276.492 198.348 276.623 204.8 278.74C211.965 281.092 215.381 281.394 216.675 279.792C217.591 278.66 217.707 275.97 216.979 272.803C216.53 270.855 216.559 270.659 217.436 269.723C218.117 268.996 218.303 268.443 218.118 267.701C217.93 266.95 218.079 266.526 218.675 266.107C219.481 265.541 219.675 264.326 219.409 261.523C219.305 260.419 219.428 260.284 220.737 260.066C221.531 259.933 222.403 259.686 222.676 259.517C223.415 259.059 223.276 256.663 222.458 255.736C218.965 251.779 217.64 247.63 219.498 246.466C220.521 245.826 220.549 245.08 219.561 244.821C219.104 244.702 218.7 244.095 218.539 243.288C218.122 241.194 218.228 237.761 218.726 237.261C219.004 236.983 219.087 236.044 218.942 234.825C218.811 233.734 218.687 232.565 218.664 232.227C218.467 229.183 214.616 222.079 212.359 220.597C211.437 219.99 210.924 219.793 210.925 220.043ZM255.018 269.442C254.682 269.625 253.364 270.013 252.091 270.306L249.777 270.84L252.091 272.788C255.586 275.729 260.378 281.167 261.668 283.655C262.345 284.961 264.409 287.074 264.41 286.461C264.41 286.253 262.718 282.259 260.65 277.585C256.888 269.079 256.562 268.609 255.018 269.442Z" fill="#594032"/>
</g>
<defs>
<clipPath id="clip0_9623_24">
<rect width="500" height="500" fill="white"/>
</clipPath>
</defs>
</svg>
